<svg xmlns="http://www.w3.org/2000/svg" width="16" height="16" fill="none" xmlns:v="https://vecta.io/nano"><style>@media(prefers-color-scheme: dark){.A{fill:white}} @media(prefers-color-scheme: dark){.A{fill:white}}</style><g fill="#000" class="A"><path d="M7.255 8.6h1.924v-.642h-.211c0 .246-.18.427-.454.427h-.296v-.959h.319v-.213H7.255v.213h.323l.001.959h-.324V8.6zm2.849.001l.749.001.635-1.175h.319v-.213h-.958v.213h.277l-.462.855-.469-.855h.336l-.001-.213H9.14v.213h.318l.646 1.174zM3.426 7.214h-1.39v.213h.318L3 8.601l.749.001.635-1.175h.319v-.213h-.958v.213h.276l-.462.855-.469-.855h.336v-.213z"/><path d="M4.888 7.909c0 .408.329.733.989.733s.985-.325.985-.733c0-.403-.345-.724-.989-.724s-.985.321-.985.724zm1.328.004c-.004.252-.109.514-.35.51-.235-.004-.338-.264-.334-.522.005-.267.133-.5.353-.497s.336.241.331.509zm5.774-.004c0 .408.329.733.989.733s.985-.325.985-.733c0-.403-.345-.724-.989-.724s-.985.321-.985.724zm.997-.505c.22.004.336.241.331.509-.005.252-.109.514-.35.51-.235-.004-.338-.264-.334-.522.004-.267.133-.5.353-.497zm1.534-3.906l-.805.805A6.77 6.77 0 0 1 14.807 8 6.81 6.81 0 0 1 8 14.807 6.81 6.81 0 0 1 1.193 8 6.81 6.81 0 0 1 8 1.193c1.366 0 2.639.403 3.705 1.096l.805-.805C11.23.596 9.676.076 8 .076 3.624.076.076 3.624.076 8S3.624 15.924 8 15.924 15.924 12.376 15.924 8c0-1.672-.519-3.224-1.404-4.502z"/><path d="M11.986.387V.61a8.47 8.47 0 0 1 1.351.913l-1.129 1.129c.426.334.811.719 1.145 1.144l1.128-1.128a8.74 8.74 0 0 1 .914 1.346h.217V.387h-3.626z"/></g></svg>